<svg width="16" height="17" viewBox="0 0 16 17" fill="none" xmlns="http://www.w3.org/2000/svg">
<path d="M13.4921 16.3154C12.5274 17.2103 11.463 17.0708 10.4484 16.6489C9.36981 16.2184 8.38374 16.1912 7.24459 16.6489C5.82599 17.2341 5.07309 17.064 4.21873 16.3154C-0.604845 11.5688 0.107122 4.3383 5.58927 4.06609C6.91886 4.13415 7.84976 4.76873 8.63292 4.82147C9.79699 4.5952 10.9112 3.947 12.1572 4.03207C13.6541 4.14776 14.7736 4.71259 15.5212 5.72826C12.4419 7.49761 13.1717 11.3766 16 12.4654C15.434 13.886 14.7078 15.2895 13.4903 16.3273L13.4921 16.3154ZM8.52613 4.01506C8.38196 1.90545 10.1708 0.170129 12.2284 0C12.5114 2.43285 9.91446 4.25324 8.52613 4.01506Z" fill="white"/>
</svg>
