<svg width="17" height="16" viewBox="0 0 17 16" fill="none" xmlns="http://www.w3.org/2000/svg">
<g clip-path="url(#clip0_5_164)">
<path d="M8.57735 16C13.0867 16 16.7423 12.4183 16.7423 8C16.7423 3.58172 13.0867 0 8.57735 0C4.06797 0 0.412399 3.58172 0.412399 8C0.412399 12.4183 4.06797 16 8.57735 16Z" fill="white"/>
<path d="M11.5699 1.33313H9.39506C8.10444 1.33313 6.66891 1.86498 6.66891 3.69801C6.67521 4.3367 6.66891 4.94839 6.66891 5.6368H5.17584V7.96473H6.71512V14.6665H9.54361V7.92051H11.4105L11.5794 5.63026H9.49487C9.49487 5.63026 9.49954 4.61147 9.49487 4.3156C9.49487 3.59123 10.2641 3.63271 10.3104 3.63271C10.6765 3.63271 11.3882 3.63376 11.571 3.63271V1.33313H11.5699Z" fill="#3C5A9A"/>
</g>
<defs>
<clipPath id="clip0_5_164">
<rect x="0.412369" width="16.3299" height="16" rx="8" fill="white"/>
</clipPath>
</defs>
</svg>
