<svg width="17" height="16" viewBox="0 0 17 16" fill="none" xmlns="http://www.w3.org/2000/svg">
<g clip-path="url(#clip0_5_171)">
<path d="M16.7335 8.1497C16.7335 7.49419 16.6779 7.01584 16.5577 6.51978H8.73981V9.47843H13.3287C13.2363 10.2137 12.7366 11.321 11.6264 12.0651L11.6108 12.1641L14.0827 13.9976L14.254 14.0139C15.8268 12.6232 16.7335 10.5769 16.7335 8.1497Z" fill="#4285F4"/>
<path d="M8.74018 15.9451C10.9884 15.9451 12.8758 15.2364 14.2544 14.014L11.6268 12.0651C10.9236 12.5346 9.97992 12.8623 8.74018 12.8623C6.53822 12.8623 4.66932 11.4716 4.00312 9.54932L3.90546 9.55726L1.33516 11.4618L1.30154 11.5513C2.67083 14.1557 5.48344 15.9451 8.74018 15.9451Z" fill="#34A853"/>
<path d="M4.003 9.54924C3.82722 9.05318 3.72549 8.52164 3.72549 7.97245C3.72549 7.42319 3.82722 6.89171 3.99376 6.39565L3.9891 6.29L1.3866 4.35486L1.30145 4.39364C0.737106 5.47437 0.413284 6.68799 0.413284 7.97245C0.413284 9.2569 0.737106 10.4705 1.30145 11.5512L4.003 9.54924Z" fill="#FBBC05"/>
<path d="M8.74013 3.08269C10.3037 3.08269 11.3584 3.72934 11.9598 4.26974L14.3098 2.07286C12.8665 0.788397 10.9883 0 8.74013 0C5.48342 0 2.67082 1.78937 1.30154 4.39371L3.99385 6.39573C4.6693 4.47347 6.53818 3.08269 8.74013 3.08269Z" fill="#EB4335"/>
</g>
<defs>
<clipPath id="clip0_5_171">
<rect x="0.412369" width="16.3299" height="16" rx="8" fill="white"/>
</clipPath>
</defs>
</svg>
