<svg width="166" height="166" viewBox="0 0 166 166" fill="none" xmlns="http://www.w3.org/2000/svg">
<path d="M83.44 152.88C121.791 152.88 152.88 121.791 152.88 83.44C152.88 45.0888 121.791 14 83.44 14C45.0888 14 14 45.0888 14 83.44C14 121.791 45.0888 152.88 83.44 152.88Z" fill="#FFB319"/>
<path d="M83.4389 140.75C115.092 140.75 140.749 115.093 140.749 83.4398C140.749 51.787 115.092 26.1296 83.4389 26.1296C51.7861 26.1296 26.1287 51.787 26.1287 83.4398C26.1287 115.093 51.7861 140.75 83.4389 140.75Z" fill="url(#paint0_linear_367_11194)"/>
<path d="M83.2759 42.5581C87.8572 42.4519 91.564 46.6246 91.3556 51.6473L89.0547 106.824C88.9362 109.697 86.9336 111.99 84.4447 112.1C81.8781 112.215 79.6917 109.971 79.4792 107.016L75.5435 51.9293C75.1838 46.9474 78.719 42.6644 83.2759 42.5581Z" fill="#FF5947"/>
<path d="M84.3635 124.325C87.3112 124.325 89.7009 121.842 89.7009 118.779C89.7009 115.716 87.3112 113.233 84.3635 113.233C81.4157 113.233 79.026 115.716 79.026 118.779C79.026 121.842 81.4157 124.325 84.3635 124.325Z" fill="#FF5947"/>
<defs>
<linearGradient id="paint0_linear_367_11194" x1="30.6417" y1="-15.7549" x2="149.057" y2="206.722" gradientUnits="userSpaceOnUse">
<stop offset="0.3428" stop-color="#F6F5F6"/>
<stop offset="0.5443" stop-color="#F6F5F6"/>
<stop offset="0.7778" stop-color="#E6E5F2"/>
</linearGradient>
</defs>
</svg>
